<?xml version="1.0" encoding="UTF-8"?>
<svg width="183px" height="195px" viewBox="0 0 183 195" version="1.1" xmlns="http://www.w3.org/2000/svg" xmlns:xlink="http://www.w3.org/1999/xlink">
    <!-- Generator: Sketch 53.2 (72643) - https://sketchapp.com -->
    <title>Group 5</title>
    <desc>Created with Sketch.</desc>
    <g id="What-We-Do" stroke="none" stroke-width="1" fill="none" fill-rule="evenodd">
        <g id="What-We-Do-Landing-Page" transform="translate(-870.000000, -439.000000)">
            <g id="Group-5" transform="translate(874.000000, 443.000000)">
                <path d="M119,0 C149.879112,0 175,25.1218877 175,56" id="Stroke-35" stroke="#4BAFA5" stroke-width="7.924" stroke-linecap="round" stroke-linejoin="round"></path>
                <g id="Group-4" transform="translate(0.000000, 18.000000)">
                    <path d="M123,4 C140.092911,4 154,17.9060802 154,35" id="Stroke-37" stroke="#4BAFA5" stroke-width="7.924" stroke-linecap="round" stroke-linejoin="round"></path>
                    <path d="M51.9266544,116.001437 L65,129.075789 L37.9431582,156.132631 C35.4533327,158.622456 31.4150432,158.622456 28.9242109,156.132631 L1.86736911,129.075789 C-0.622456369,126.584957 -0.622456369,122.546667 1.86736911,120.056842 L28.9242109,93 L35.6073737,99.682156" id="Stroke-39" stroke="#4BAFA5" stroke-width="7.924" stroke-linecap="round" stroke-linejoin="round"></path>
                    <path d="M144,94 L65,129" id="Stroke-41" stroke="#4BAFA5" stroke-width="7.924" stroke-linecap="round" stroke-linejoin="round"></path>
                    <path d="M29,93 L64,14" id="Stroke-43" stroke="#4BAFA5" stroke-width="7.924" stroke-linecap="round" stroke-linejoin="round"></path>
                    <polyline id="Stroke-45" stroke="#4BAFA5" stroke-width="7.924" stroke-linecap="round" stroke-linejoin="round" points="64.1011508 129 91 156.047904 77.8998587 169 51 141.951098"></polyline>
                    <path d="M154.383094,92.3823632 L154.383094,92.3823632 C150.892884,95.8725456 145.234194,95.8725456 141.743984,92.3823632 L64.6176575,15.2566466 C61.1274475,11.7664641 61.1274475,6.10781925 64.6176575,2.61763682 C68.1068655,-0.872545607 73.7665572,-0.872545607 77.2567673,2.61763682 L154.383094,79.7433534 C157.872302,83.2335359 157.872302,88.8921808 154.383094,92.3823632 Z" id="Stroke-47" stroke="#4BAFA5" stroke-width="7.924" stroke-linecap="round" stroke-linejoin="round"></path>
                    <path d="M99,23.98707 L100.847132,23.3710475 C110.44447,20.1726985 121.024494,22.6695767 128.177536,29.8223927 C135.329585,36.9752087 137.827536,47.5548983 134.629086,57.1509389 L134.013044,59" id="Stroke-49" stroke="#4BAFA5" stroke-width="7.924" stroke-linecap="round" stroke-linejoin="round"></path>
                    <path d="M46.6816887,110.681689 C44.9239403,112.439437 42.0750342,112.439437 40.3183113,110.681689 C38.5605629,108.924966 38.5605629,106.075034 40.3183113,104.318311 C42.0750342,102.560563 44.9239403,102.560563 46.6816887,104.318311 C48.4394371,106.075034 48.4394371,108.924966 46.6816887,110.681689" id="Fill-51" fill="#4BAFA5"></path>
                </g>
            </g>
        </g>
    </g>
</svg>