<?xml version="1.0" encoding="UTF-8"?>
<!DOCTYPE svg PUBLIC "-//W3C//DTD SVG 1.1//EN" "http://www.w3.org/Graphics/SVG/1.1/DTD/svg11.dtd">
<!-- Creator: CorelDRAW 2018 (64-Bit Evaluation Version) -->
<svg xmlns="http://www.w3.org/2000/svg" xml:space="preserve" width="210mm" height="297mm" version="1.1" style="shape-rendering:geometricPrecision; text-rendering:geometricPrecision; image-rendering:optimizeQuality; fill-rule:evenodd; clip-rule:evenodd"
viewBox="0 0 21000 29700"
 xmlns:xlink="http://www.w3.org/1999/xlink">
 <g id="Layer_x0020_1">
  <metadata id="CorelCorpID_0Corel-Layer"/>
  <path fill-rule="evenodd" clip-rule="evenodd" fill="#F37A21" d="M2625 10912.5l15750 0 0 -1968.75c0,-179.79 -74.03,-343.72 -193.28,-462.97 -119.25,-119.25 -283.18,-193.28 -462.97,-193.28l-14437.5 0c-179.79,0 -343.72,74.03 -462.97,193.28 -119.25,119.25 -193.28,283.18 -193.28,462.97l0 1968.75zm8603.03 2989.01c161.39,-322.79 553.92,-453.62 876.71,-292.23 322.79,161.39 453.62,553.92 292.23,876.71l-2625 5250c-161.39,322.79 -553.92,453.62 -876.71,292.23 -322.79,-161.39 -453.62,-553.92 -292.23,-876.71l2625 -5250zm2089.23 1412.48c-256.25,-256.25 -256.25,-671.73 0,-927.98 256.25,-256.25 671.73,-256.25 927.98,0l1968.75 1968.75c256.25,256.25 256.25,671.73 0,927.98l-1968.75 1968.75c-256.25,256.25 -671.73,256.25 -927.98,0 -256.25,-256.25 -256.25,-671.73 0,-927.98l1504.76 -1504.76 -1504.76 -1504.76zm-6562.5 -927.98c256.25,-256.25 671.73,-256.25 927.98,0 256.25,256.25 256.25,671.73 0,927.98l-1504.76 1504.76 1504.76 1504.76c256.25,256.25 256.25,671.73 0,927.98 -256.25,256.25 -671.73,256.25 -927.98,0l-1968.75 -1968.75c-256.25,-256.25 -256.25,-671.73 0,-927.98l1968.75 -1968.75zm11620.24 -2161.01l-15750 0 0 8531.25c0,179.78 74.03,343.7 193.29,462.96 119.26,119.26 283.18,193.29 462.96,193.29l14437.5 0c179.78,0 343.7,-74.03 462.96,-193.29 119.26,-119.26 193.29,-283.18 193.29,-462.96l0 -8531.25zm-15093.75 -5250l14437.5 0c542.08,0 1034.44,221.29 1390.95,577.8 356.51,356.51 577.8,848.87 577.8,1390.95l0 2625 0 9187.5c0,542.09 -221.3,1034.43 -577.81,1390.94 -356.51,356.51 -848.85,577.81 -1390.94,577.81l-14437.5 0c-542.09,0 -1034.43,-221.3 -1390.94,-577.81 -356.51,-356.51 -577.81,-848.85 -577.81,-1390.94l0 -9187.5 0 -2625c0,-542.08 221.29,-1034.44 577.8,-1390.95 356.51,-356.51 848.87,-577.8 1390.95,-577.8z"/>
  <path fill-rule="evenodd" clip-rule="evenodd" fill="#F37A21" d="M4593.75 10256.25c-196.88,0 -328.13,-65.63 -459.38,-196.88 -131.25,-131.25 -196.87,-262.5 -196.87,-459.37 0,-196.88 65.63,-328.13 196.88,-459.38 0,0 65.63,-65.63 65.63,-65.63 65.63,0 65.63,-65.63 131.25,-65.63 65.61,-65.61 65.61,-65.61 131.24,-65.61 65.63,0 196.88,0 262.5,0 65.63,0 65.63,0 131.25,65.63 65.63,0 65.63,65.63 131.25,65.63 0,0 65.63,65.63 65.63,65.63 65.63,65.63 131.25,131.25 131.25,196.88 65.62,65.6 65.62,196.85 65.62,262.48 0,65.63 0,196.88 -65.63,262.5 0,65.62 -65.62,131.25 -131.25,196.87 -131.25,131.25 -262.5,196.88 -459.37,196.88z"/>
  <path fill-rule="evenodd" clip-rule="evenodd" fill="#F37A21" d="M6562.5 10256.25c-196.88,0 -328.13,-65.63 -459.38,-196.88 -131.25,-131.25 -196.87,-262.5 -196.87,-459.37 0,-65.63 0,-196.88 65.63,-262.5 65.63,-65.63 65.63,-131.25 131.25,-196.88 65.63,-65.63 131.25,-131.25 196.88,-131.25 262.49,-131.25 524.99,-65.62 721.86,131.25 65.63,65.63 131.25,131.25 131.25,196.88 65.63,65.62 65.63,196.87 65.63,262.5 0,196.88 -65.63,328.13 -196.88,459.38 -131.25,131.24 -262.5,196.87 -459.37,196.87z"/>
  <path fill-rule="evenodd" clip-rule="evenodd" fill="#F37A21" d="M8531.25 10256.25c-65.63,0 -196.88,0 -262.5,-65.63 -65.63,-65.63 -131.25,-65.63 -196.88,-131.25 -65.63,-65.63 -131.25,-131.25 -131.25,-196.88 -65.62,-65.62 -65.62,-196.87 -65.62,-262.49 0,-65.63 0,-196.88 65.63,-262.5 65.63,-65.63 65.63,-131.25 131.25,-196.88 262.5,-262.5 656.25,-262.5 918.75,0 65.63,65.63 131.25,131.25 131.25,196.88 65.62,65.62 65.62,196.87 65.62,262.5 0,65.63 0,196.88 -65.63,262.5 -65.63,65.63 -65.63,131.25 -131.25,196.88 -131.25,131.24 -262.5,196.87 -459.37,196.87z"/>
 </g>
</svg>
